<?xml version="1.0" encoding="utf-8"?>
<!-- Generator: Adobe Illustrator 19.0.1, SVG Export Plug-In . SVG Version: 6.00 Build 0)  -->
<svg version="1.1" id="Layer_1" xmlns="http://www.w3.org/2000/svg" xmlns:xlink="http://www.w3.org/1999/xlink" x="0px" y="0px"
	 viewBox="-273 325 63.8 144" style="enable-background:new -273 325 63.8 144;" xml:space="preserve">
<style type="text/css">
	.st0{fill:#010101;}
	.st1{fill:#E9E8E9;}
	.st2{fill:#FFFFFF;}
	.st3{fill:none;}
	.st4{fill:none;stroke:#9A916C;stroke-miterlimit:10;}
	.st5{fill:#939598;}
	.st6{fill:#FFFFFF;stroke:#000000;stroke-miterlimit:10;}
	.st7{fill:#00FF00;}
	.st8{fill:#FF0000;}
	.st9{font-family:'DroidSans';}
	.st10{font-size:3.4157px;}
</style>
<g id="Fiber_bottom">
	<path class="st0" d="M-216.1,469h-50c-3.8,0-6.9-3.2-6.9-7V332.8c0-3.8,3.1-6.9,6.9-6.9h50c3.8,0,6.9,3.1,6.9,6.9v129.3
		C-209.2,465.9-212.3,469-216.1,469z"/>
</g>
<g id="Fiber_Top">
	<path class="st0" d="M-216.1,469h-50c-3.8,0-6.9-3.2-6.9-7V332.8c0-3.8,3.1-6.9,6.9-6.9h50c3.8,0,6.9,3.1,6.9,6.9v129.3
		C-209.2,465.9-212.3,469-216.1,469z"/>
</g>
<g id="Holes">
	<circle class="st1" cx="-265.7" cy="461.3" r="3.6"/>
	<circle class="st2" cx="-265.5" cy="333.4" r="3.6"/>
	<circle class="st2" cx="-216.1" cy="333.2" r="3.6"/>
	<circle class="st2" cx="-216.1" cy="461.3" r="3.6"/>
	<g id="copper_copy">
		<circle class="st3" cx="-269.3" cy="343.7" r="2"/>
		<circle class="st3" cx="-269.3" cy="450.6" r="2"/>
		<circle class="st3" cx="-269.3" cy="443.5" r="2"/>
		<circle class="st3" cx="-269.3" cy="436.3" r="2"/>
		<circle class="st3" cx="-269.3" cy="429.2" r="2"/>
		<circle class="st3" cx="-269.3" cy="422.1" r="2"/>
		<circle class="st3" cx="-269.3" cy="415" r="2"/>
		<circle class="st3" cx="-269.3" cy="407.8" r="2"/>
		<circle class="st3" cx="-269.3" cy="400.7" r="2"/>
		<circle class="st3" cx="-269.3" cy="393.6" r="2"/>
		<circle class="st3" cx="-269.3" cy="386.5" r="2"/>
		<circle class="st3" cx="-269.3" cy="379.3" r="2"/>
		<circle class="st3" cx="-269.3" cy="372.2" r="2"/>
		<circle class="st3" cx="-212.4" cy="450.6" r="2"/>
		<circle class="st3" cx="-212.4" cy="443.5" r="2"/>
		<circle class="st3" cx="-212.4" cy="436.3" r="2"/>
		<circle class="st3" cx="-212.4" cy="429.2" r="2"/>
		<circle class="st3" cx="-212.4" cy="422.1" r="2"/>
		<circle class="st3" cx="-212.4" cy="415" r="2"/>
		<circle class="st3" cx="-212.4" cy="407.8" r="2"/>
		<circle class="st3" cx="-212.4" cy="400.7" r="2"/>
		<circle class="st3" cx="-212.4" cy="393.6" r="2"/>
		<circle class="st3" cx="-212.4" cy="386.5" r="2"/>
		<circle class="st3" cx="-212.4" cy="379.3" r="2"/>
		<circle class="st3" cx="-212.4" cy="372.2" r="2"/>
		<circle class="st3" cx="-269.3" cy="365.1" r="2"/>
		<circle class="st3" cx="-269.3" cy="358" r="2"/>
		<circle class="st3" cx="-269.3" cy="350.8" r="2"/>
	</g>
</g>
<g id="copper">
	<circle class="st4" cx="-269.3" cy="343.7" r="2"/>
	<circle class="st4" cx="-269.3" cy="450.6" r="2"/>
	<circle class="st4" cx="-269.3" cy="443.5" r="2"/>
	<circle class="st4" cx="-269.3" cy="436.3" r="2"/>
	<circle class="st4" cx="-269.3" cy="429.2" r="2"/>
	<circle class="st4" cx="-269.3" cy="422.1" r="2"/>
	<circle class="st4" cx="-269.3" cy="415" r="2"/>
	<circle class="st4" cx="-269.3" cy="407.8" r="2"/>
	<circle class="st4" cx="-269.3" cy="400.7" r="2"/>
	<circle class="st4" cx="-269.3" cy="393.6" r="2"/>
	<circle class="st4" cx="-269.3" cy="386.5" r="2"/>
	<circle class="st4" cx="-269.3" cy="379.3" r="2"/>
	<circle class="st4" cx="-269.3" cy="372.2" r="2"/>
	<circle class="st4" cx="-212.4" cy="450.6" r="2"/>
	<circle class="st4" cx="-212.4" cy="443.5" r="2"/>
	<circle class="st4" cx="-212.4" cy="436.3" r="2"/>
	<circle class="st4" cx="-212.4" cy="429.2" r="2"/>
	<circle class="st4" cx="-212.4" cy="422.1" r="2"/>
	<circle class="st4" cx="-212.4" cy="415" r="2"/>
	<circle class="st4" cx="-212.4" cy="407.8" r="2"/>
	<circle class="st4" cx="-212.4" cy="400.7" r="2"/>
	<circle class="st4" cx="-212.4" cy="393.6" r="2"/>
	<circle class="st4" cx="-212.4" cy="386.5" r="2"/>
	<circle class="st4" cx="-212.4" cy="379.3" r="2"/>
	<circle class="st4" cx="-212.4" cy="372.2" r="2"/>
	<circle class="st4" cx="-269.3" cy="365.1" r="2"/>
	<circle class="st4" cx="-269.3" cy="358" r="2"/>
	<circle class="st4" cx="-269.3" cy="350.8" r="2"/>
</g>
<g id="Components">
	<rect x="-252.3" y="325" class="st5" width="22.5" height="16.7"/>
	<rect x="-261" y="420.8" class="st5" width="39.9" height="39.3"/>
	<rect x="-233.3" y="460.1" class="st5" width="12.1" height="4.9"/>
	<polyline class="st5" points="-255.3,460.1 -258.2,462.5 -261,462.5 -261,460.1 	"/>
	<circle class="st2" cx="-265.5" cy="333.4" r="5.5"/>
	<circle class="st4" cx="-265.5" cy="333.4" r="4.5"/>
	<g>
		<rect x="-256.8" y="416.6" class="st6" width="7" height="3.5"/>
		<rect x="-254.7" y="417.1" class="st7" width="3.1" height="2.5"/>
	</g>
	<g>
		<rect x="-227.2" y="335.8" class="st6" width="3.5" height="7"/>
		<rect x="-226.8" y="337.9" class="st8" width="2.5" height="3.1"/>
	</g>
</g>
<g id="Labels">
	<text transform="matrix(1 0 0 1 -266.6076 345.1895)" class="st2 st9 st10">RESET</text>
	<text transform="matrix(1 0 0 1 -266.6076 352.3223)" class="st2 st9 st10">3.3V</text>
	<text transform="matrix(1 0 0 1 -266.6076 359.4546)" class="st2 st9 st10">VRef</text>
	<text transform="matrix(1 0 0 1 -266.6076 366.5874)" class="st2 st9 st10">Gnd</text>
	<text transform="matrix(1 0 0 1 -266.6086 373.7198)" class="st2 st9 st10">A0</text>
	<text transform="matrix(1 0 0 1 -266.6076 380.8521)" class="st2 st9 st10">A1</text>
	<text transform="matrix(1 0 0 1 -266.6066 387.9849)" class="st2 st9 st10">A2</text>
	<text transform="matrix(1 0 0 1 -266.6086 395.1177)" class="st2 st9 st10">A3</text>
	<text transform="matrix(1 0 0 1 -266.6076 402.2505)" class="st2 st9 st10">A4</text>
	<text transform="matrix(1 0 0 1 -266.6076 409.3833)" class="st2 st9 st10">A5</text>
	<text transform="matrix(1 0 0 1 -266.6086 416.5151)" class="st2 st9 st10">SCK</text>
	<text transform="matrix(1 0 0 1 -266.6076 423.648)" class="st2 st9 st10">MOSI</text>
	<text transform="matrix(1 0 0 1 -266.6076 430.7808)" class="st2 st9 st10">MISO</text>
	<text transform="matrix(1 0 0 1 -266.6076 437.9126)" class="st2 st9 st10">RX</text>
	<text transform="matrix(1 0 0 1 -266.6076 445.0454)" class="st2 st9 st10">TX</text>
	<text transform="matrix(1 0 0 1 -266.6076 452.1782)" class="st2 st9 st10">Gnd</text>
	<text transform="matrix(1 0 0 1 -221.4123 373.7198)" class="st2 st9 st10">VBat</text>
	<text transform="matrix(1 0 0 1 -218.8791 380.8521)" class="st2 st9 st10">En</text>
	<text transform="matrix(1 0 0 1 -221.9944 387.9849)" class="st2 st9 st10">VBus</text>
	<text transform="matrix(1 0 0 1 -220.8215 395.1177)" class="st2 st9 st10">D13</text>
	<text transform="matrix(1 0 0 1 -220.8225 402.2505)" class="st2 st9 st10">D12</text>
	<text transform="matrix(1 0 0 1 -220.8224 409.3833)" class="st2 st9 st10">D11</text>
	<text transform="matrix(1 0 0 1 -220.8225 416.5151)" class="st2 st9 st10">D10</text>
	<text transform="matrix(1 0 0 1 -219.2815 423.648)" class="st2 st9 st10">D9</text>
	<text transform="matrix(1 0 0 1 -219.2804 430.7808)" class="st2 st9 st10">D6</text>
	<text transform="matrix(1 0 0 1 -219.2824 437.9126)" class="st2 st9 st10">D5</text>
	<text transform="matrix(1 0 0 1 -249.7824 418.3489)" class="st2 st9 st10">D8</text>
	<text transform="matrix(1 0 0 1 -254.6574 424.4739)" class="st9 st10">D4 - Chip Select</text>
	<text transform="matrix(1 0 0 1 -254.6576 429.2003)" class="st9 st10">D7 - Card Detect</text>
	<text transform="matrix(1 0 0 1 -223.4125 341.7003)" class="st2 st9 st10">D13</text>
	<text transform="matrix(1 0 0 1 -220.8224 445.0454)" class="st2 st9 st10">SCL</text>
	<text transform="matrix(1 0 0 1 -220.8225 452.1782)" class="st2 st9 st10">SDA</text>
</g>
</svg>
