<?xml version="1.0" encoding="utf-8"?>
<!-- Generator: Adobe Illustrator 19.0.1, SVG Export Plug-In . SVG Version: 6.00 Build 0)  -->
<svg version="1.1" xmlns="http://www.w3.org/2000/svg" xmlns:xlink="http://www.w3.org/1999/xlink" x="0px" y="0px"
	 viewBox="0 0 63.8 144" style="enable-background:new 0 0 63.8 144;" xml:space="preserve">
<style type="text/css">
	.st0{fill:#010101;}
	.st1{fill:#E9E8E9;}
	.st2{fill:#FFFFFF;}
	.st3{fill:none;}
	.st4{fill:none;stroke:#9A916C;stroke-miterlimit:10;}
	.st5{fill:#939598;}
	.st6{font-family:'DroidSans';}
	.st7{font-size:3.4157px;}
</style>
<g id="Fiber_bottom">
	<path class="st0" d="M56.9,144h-50C3.1,144,0,140.8,0,137V7.8C0,4,3.1,0.9,6.9,0.9h50c3.8,0,6.9,3.1,6.9,6.9v129.3
		C63.8,140.9,60.7,144,56.9,144z"/>
</g>
<g id="Fiber_Top">
	<path class="st0" d="M56.9,144h-50C3.1,144,0,140.8,0,137V7.8C0,4,3.1,0.9,6.9,0.9h50c3.8,0,6.9,3.1,6.9,6.9v129.3
		C63.8,140.9,60.7,144,56.9,144z"/>
</g>
<g id="Holes">
	<circle class="st1" cx="7.3" cy="136.3" r="3.6"/>
	<circle class="st2" cx="7.5" cy="8.4" r="3.6"/>
	<circle class="st2" cx="56.9" cy="8.2" r="3.6"/>
	<circle class="st2" cx="56.9" cy="136.3" r="3.6"/>
	<g id="copper_copy">
		<circle class="st3" cx="3.7" cy="18.7" r="2"/>
		<circle class="st3" cx="3.7" cy="125.6" r="2"/>
		<circle class="st3" cx="3.7" cy="118.5" r="2"/>
		<circle class="st3" cx="3.7" cy="111.3" r="2"/>
		<circle class="st3" cx="3.7" cy="104.2" r="2"/>
		<circle class="st3" cx="3.7" cy="97.1" r="2"/>
		<circle class="st3" cx="3.7" cy="90" r="2"/>
		<circle class="st3" cx="3.7" cy="82.8" r="2"/>
		<circle class="st3" cx="3.7" cy="75.7" r="2"/>
		<circle class="st3" cx="3.7" cy="68.6" r="2"/>
		<circle class="st3" cx="3.7" cy="61.5" r="2"/>
		<circle class="st3" cx="3.7" cy="54.3" r="2"/>
		<circle class="st3" cx="3.7" cy="47.2" r="2"/>
		<circle class="st3" cx="60.6" cy="125.6" r="2"/>
		<circle class="st3" cx="60.6" cy="118.5" r="2"/>
		<circle class="st3" cx="60.6" cy="111.3" r="2"/>
		<circle class="st3" cx="60.6" cy="104.2" r="2"/>
		<circle class="st3" cx="60.6" cy="97.1" r="2"/>
		<circle class="st3" cx="60.6" cy="90" r="2"/>
		<circle class="st3" cx="60.6" cy="82.8" r="2"/>
		<circle class="st3" cx="60.6" cy="75.7" r="2"/>
		<circle class="st3" cx="60.6" cy="68.6" r="2"/>
		<circle class="st3" cx="60.6" cy="61.5" r="2"/>
		<circle class="st3" cx="60.6" cy="54.3" r="2"/>
		<circle class="st3" cx="60.6" cy="47.2" r="2"/>
		<circle class="st3" cx="3.7" cy="40.1" r="2"/>
		<circle class="st3" cx="3.7" cy="33" r="2"/>
		<circle class="st3" cx="3.7" cy="25.8" r="2"/>
	</g>
</g>
<g id="copper">
	<circle class="st4" cx="3.7" cy="18.7" r="2"/>
	<circle class="st4" cx="3.7" cy="125.6" r="2"/>
	<circle class="st4" cx="3.7" cy="118.5" r="2"/>
	<circle class="st4" cx="3.7" cy="111.3" r="2"/>
	<circle class="st4" cx="3.7" cy="104.2" r="2"/>
	<circle class="st4" cx="3.7" cy="97.1" r="2"/>
	<circle class="st4" cx="3.7" cy="90" r="2"/>
	<circle class="st4" cx="3.7" cy="82.8" r="2"/>
	<circle class="st4" cx="3.7" cy="75.7" r="2"/>
	<circle class="st4" cx="3.7" cy="68.6" r="2"/>
	<circle class="st4" cx="3.7" cy="61.5" r="2"/>
	<circle class="st4" cx="3.7" cy="54.3" r="2"/>
	<circle class="st4" cx="3.7" cy="47.2" r="2"/>
	<circle class="st4" cx="60.6" cy="125.6" r="2"/>
	<circle class="st4" cx="60.6" cy="118.5" r="2"/>
	<circle class="st4" cx="60.6" cy="111.3" r="2"/>
	<circle class="st4" cx="60.6" cy="104.2" r="2"/>
	<circle class="st4" cx="60.6" cy="97.1" r="2"/>
	<circle class="st4" cx="60.6" cy="90" r="2"/>
	<circle class="st4" cx="60.6" cy="82.8" r="2"/>
	<circle class="st4" cx="60.6" cy="75.7" r="2"/>
	<circle class="st4" cx="60.6" cy="68.6" r="2"/>
	<circle class="st4" cx="60.6" cy="61.5" r="2"/>
	<circle class="st4" cx="60.6" cy="54.3" r="2"/>
	<circle class="st4" cx="60.6" cy="47.2" r="2"/>
	<circle class="st4" cx="3.7" cy="40.1" r="2"/>
	<circle class="st4" cx="3.7" cy="33" r="2"/>
	<circle class="st4" cx="3.7" cy="25.8" r="2"/>
</g>
<g id="Components">
	<rect x="20.7" class="st5" width="22.5" height="16.7"/>
	<rect x="12" y="95.8" class="st5" width="39.9" height="39.3"/>
	<rect x="39.7" y="135.1" class="st5" width="12.1" height="4.9"/>
	<polyline class="st5" points="17.7,135.1 14.8,137.5 12,137.5 12,135.1 	"/>
	<circle class="st2" cx="7.5" cy="8.4" r="5.5"/>
	<circle class="st4" cx="7.5" cy="8.4" r="4.5"/>
</g>
<g id="Labels">
	<text transform="matrix(1 0 0 1 6.3924 20.1895)" class="st2 st6 st7">RESET</text>
	<text transform="matrix(1 0 0 1 6.3924 27.3223)" class="st2 st6 st7">3.3V</text>
	<text transform="matrix(1 0 0 1 6.3924 34.4546)" class="st2 st6 st7">VRef</text>
	<text transform="matrix(1 0 0 1 6.3924 41.5874)" class="st2 st6 st7">Gnd</text>
	<text transform="matrix(1 0 0 1 6.3914 48.7198)" class="st2 st6 st7">A0</text>
	<text transform="matrix(1 0 0 1 6.3924 55.8521)" class="st2 st6 st7">A1</text>
	<text transform="matrix(1 0 0 1 6.3934 62.9849)" class="st2 st6 st7">A2</text>
	<text transform="matrix(1 0 0 1 6.3914 70.1177)" class="st2 st6 st7">A3</text>
	<text transform="matrix(1 0 0 1 6.3924 77.2505)" class="st2 st6 st7">A4</text>
	<text transform="matrix(1 0 0 1 6.3924 84.3833)" class="st2 st6 st7">A5</text>
	<text transform="matrix(1 0 0 1 6.3914 91.5151)" class="st2 st6 st7">SCK</text>
	<text transform="matrix(1 0 0 1 6.3924 98.648)" class="st2 st6 st7">MOSI</text>
	<text transform="matrix(1 0 0 1 6.3924 105.7808)" class="st2 st6 st7">MISO</text>
	<text transform="matrix(1 0 0 1 6.3924 112.9126)" class="st2 st6 st7">RX</text>
	<text transform="matrix(1 0 0 1 6.3924 120.0454)" class="st2 st6 st7">TX</text>
	<text transform="matrix(1 0 0 1 6.3924 127.1782)" class="st2 st6 st7">Gnd</text>
	<text transform="matrix(1 0 0 1 51.5877 48.7198)" class="st2 st6 st7">VBat</text>
	<text transform="matrix(1 0 0 1 54.1209 55.8521)" class="st2 st6 st7">En</text>
	<text transform="matrix(1 0 0 1 51.0056 62.9849)" class="st2 st6 st7">VBus</text>
	<text transform="matrix(1 0 0 1 52.1785 70.1177)" class="st2 st6 st7">D13</text>
	<text transform="matrix(1 0 0 1 52.1775 77.2505)" class="st2 st6 st7">D12</text>
	<text transform="matrix(1 0 0 1 52.1776 84.3833)" class="st2 st6 st7">D11</text>
	<text transform="matrix(1 0 0 1 52.1775 91.5151)" class="st2 st6 st7">D10</text>
	<text transform="matrix(1 0 0 1 53.7185 98.648)" class="st2 st6 st7">D9</text>
	<text transform="matrix(1 0 0 1 53.7196 105.7808)" class="st2 st6 st7">D6</text>
	<text transform="matrix(1 0 0 1 53.7176 112.9126)" class="st2 st6 st7">D5</text>
	<text transform="matrix(1 0 0 1 52.1776 120.0454)" class="st2 st6 st7">D21</text>
	<text transform="matrix(1 0 0 1 52.1775 127.1782)" class="st2 st6 st7">D20</text>
</g>
</svg>
