<?xml version="1.0" encoding="utf-8"?>
<!-- Generator: Adobe Illustrator 19.0.1, SVG Export Plug-In . SVG Version: 6.00 Build 0)  -->
<svg version="1.1" id="Layer_1" xmlns="http://www.w3.org/2000/svg" xmlns:xlink="http://www.w3.org/1999/xlink" x="0px" y="0px"
	 viewBox="0 0 612 792" style="enable-background:new 0 0 612 792;" xml:space="preserve">
<style type="text/css">
	.st0{fill:none;stroke:#C29D5B;stroke-width:3;stroke-miterlimit:10;}
	.st1{fill:#E9E8E9;}
	.st2{fill:#FFFFFF;}
</style>
<g id="Layer_3">
	<g id="_x32_GAcPZ.tif">
		
			<image style="overflow:visible;enable-background:new    ;" width="1025" height="722" id="Layer_0_1_" xlink:href="56B457F03AD2654E.png"  transform="matrix(0.9993 0 0 0.9993 -206.6659 35.2354)">
		</image>
	</g>
</g>
<g id="Layer_1_1_">
	<g id="Layer_2">
	</g>
	<g>
		<path d="M351,629.4H227.5c-9.4,0-17.1-7.7-17.1-17.1V293.1c0-9.4,7.7-17.1,17.1-17.1H351c9.4,0,17.1,7.7,17.1,17.1v319.3
			C368.1,621.8,360.4,629.4,351,629.4z"/>
		<g>
			<circle class="st0" cx="219.5" cy="320" r="5"/>
			<circle class="st0" cx="219.5" cy="584" r="5"/>
			<circle class="st0" cx="219.5" cy="566.4" r="5"/>
			<circle class="st0" cx="219.5" cy="548.8" r="5"/>
			<circle class="st0" cx="219.5" cy="531.2" r="5"/>
			<circle class="st0" cx="219.5" cy="513.6" r="5"/>
			<circle class="st0" cx="219.5" cy="496" r="5"/>
			<circle class="st0" cx="219.5" cy="478.4" r="5"/>
			<circle class="st0" cx="219.5" cy="460.8" r="5"/>
			<circle class="st0" cx="219.5" cy="443.2" r="5"/>
			<circle class="st0" cx="219.5" cy="425.6" r="5"/>
			<circle class="st0" cx="219.5" cy="408" r="5"/>
			<circle class="st0" cx="219.5" cy="390.4" r="5"/>
			<circle class="st0" cx="360" cy="584" r="5"/>
			<circle class="st0" cx="360" cy="566.4" r="5"/>
			<circle class="st0" cx="360" cy="548.8" r="5"/>
			<circle class="st0" cx="360" cy="531.2" r="5"/>
			<circle class="st0" cx="360" cy="513.6" r="5"/>
			<circle class="st0" cx="360" cy="496" r="5"/>
			<circle class="st0" cx="360" cy="478.4" r="5"/>
			<circle class="st0" cx="360" cy="460.8" r="5"/>
			<circle class="st0" cx="360" cy="443.2" r="5"/>
			<circle class="st0" cx="360" cy="425.6" r="5"/>
			<circle class="st0" cx="360" cy="408" r="5"/>
			<circle class="st0" cx="360" cy="390.4" r="5"/>
			<circle class="st0" cx="219.5" cy="372.8" r="5"/>
			<circle class="st0" cx="219.5" cy="355.2" r="5"/>
			<circle class="st0" cx="219.5" cy="337.6" r="5"/>
		</g>
		<circle class="st1" cx="228.5" cy="610.5" r="9"/>
		<circle class="st2" cx="351" cy="610.5" r="9"/>
		<g>
			<circle class="st2" cx="229" cy="294.6" r="13.5"/>
			<circle class="st0" cx="229" cy="294.6" r="11"/>
			<circle class="st2" cx="229" cy="294.6" r="9"/>
		</g>
		<circle class="st2" cx="351" cy="294" r="9"/>
		<rect x="261.5" y="273.8" class="st1" width="55.5" height="41.2"/>
		<rect x="240" y="510.5" class="st1" width="98.5" height="97"/>
		<rect x="308.5" y="607.5" class="st1" width="30" height="12"/>
		<polyline class="st1" points="254,607.5 247,613.5 240,613.5 240,607.5 		"/>
	</g>
</g>
</svg>
